<svg width="10" height="10" viewBox="0 0 10 10" fill="none" xmlns="http://www.w3.org/2000/svg">
<g id="icon/live" clip-path="url(#clip0_4328_2082)">
<path id="Vector" d="M1.56555 3.21408C2.15567 3.21408 2.30643 3.46906 2.30643 3.97773V8.40383C2.30643 8.9125 2.15567 9.16619 1.56555 9.16619C0.97543 9.16619 0.833252 8.91314 0.833252 8.40447V3.97838C0.833252 3.46971 0.97543 3.21408 1.56555 3.21408ZM4.99563 0.833496C5.58575 0.833496 5.73651 1.08847 5.73651 1.59714V8.40447C5.73651 8.91314 5.58575 9.16683 4.99563 9.16683C4.40551 9.16683 4.26334 8.91378 4.26334 8.40511V1.59778C4.26334 1.08912 4.40551 0.833496 4.99563 0.833496ZM8.42571 4.40437C9.01583 4.40437 9.16659 4.65936 9.16659 5.16803V8.40383C9.16659 8.9125 9.01583 9.16619 8.42571 9.16619C7.83559 9.16619 7.69341 8.91314 7.69341 8.40448V5.16868C7.69341 4.66 7.83559 4.40437 8.42571 4.40437Z" fill="white"/>
</g>
<defs>
<clipPath id="clip0_4328_2082">
<rect width="10" height="10" fill="white"/>
</clipPath>
</defs>
</svg>
