<?xml version="1.0" standalone="no"?><!DOCTYPE svg PUBLIC "-//W3C//DTD SVG 1.1//EN" "http://www.w3.org/Graphics/SVG/1.1/DTD/svg11.dtd"><svg t="1699326437015" class="icon" viewBox="0 0 1024 1024" version="1.1" xmlns="http://www.w3.org/2000/svg" p-id="1434" xmlns:xlink="http://www.w3.org/1999/xlink" width="200" height="200"><path d="M810.0864 210.7904H261.6832a56.32 56.32 0 0 0-35.4816 99.9424l204.8 166.5536a10.5472 10.5472 0 0 1 3.8912 8.192V803.84a36.4032 36.4032 0 0 0 18.2784 31.5392l113.5104 64.8704a47.0016 47.0016 0 0 0 70.3488-40.96v-373.76a10.5472 10.5472 0 0 1 3.8912-8.192l204.8-166.5536a56.32 56.32 0 0 0-35.6352-99.9936z" fill="#9FA7FF" p-id="1435"></path><path d="M845.6192 310.7328a56.832 56.832 0 0 0 15.7696-20.0192 51.2 51.2 0 0 0-47.3088-30.0544H303.8208A52.5312 52.5312 0 0 0 256 335.104l174.9504 142.1824a10.5472 10.5472 0 0 1 3.8912 8.192v1.6384l26.4192 21.4528a9.9328 9.9328 0 0 1 3.6352 7.6288v294.7584a33.9456 33.9456 0 0 0 16.9984 29.3888l105.6256 60.3648a45.4656 45.4656 0 0 0 12.1344 4.7104 46.8992 46.8992 0 0 0 37.3248-46.08v-373.76a10.5472 10.5472 0 0 1 3.8912-8.192z" fill="#8891FF" p-id="1436"></path><path d="M818.432 316.2112H350.72A48.0768 48.0768 0 0 0 303.5136 373.76l127.4368 103.5264a10.5472 10.5472 0 0 1 3.8912 8.192v9.0112l60.2112 48.9984a9.0624 9.0624 0 0 1 3.328 7.0144V819.2a30.72 30.72 0 0 0 15.36 26.88L610.7648 901.12h0.3584a46.5408 46.5408 0 0 0 25.6-41.8816v-373.76a10.5472 10.5472 0 0 1 3.8912-8.192l194.56-158.1056a47.9744 47.9744 0 0 0-16.7424-2.9696z" fill="#6E75FF" p-id="1437"></path><path d="M559.9744 937.3184a82.432 82.432 0 0 1-40.96-11.0592l-125.8496-71.68a71.1168 71.1168 0 0 1-35.84-61.44V446.6176l-220.16-178.8928A93.0816 93.0816 0 0 1 196.096 102.4H803.84a93.0816 93.0816 0 0 1 58.88 165.3248l-219.904 178.8928v407.7568a81.92 81.92 0 0 1-41.2672 71.68 82.8416 82.8416 0 0 1-41.5744 11.264zM196.096 163.84a31.6416 31.6416 0 0 0-19.968 56.32l226.9696 184.32a42.2912 42.2912 0 0 1 15.6672 32.9216v355.072a9.5744 9.5744 0 0 0 4.8128 8.2944l125.7984 71.936a21.3504 21.3504 0 0 0 32-18.5344V437.6064a42.1376 42.1376 0 0 1 15.6672-33.1264l226.9184-184.32A31.6416 31.6416 0 0 0 803.84 163.84z" fill="#2E3138" p-id="1438"></path><path d="M889.7536 527.7696h-175.7696a30.72 30.72 0 0 1 0-61.44h175.7696a30.72 30.72 0 0 1 0 61.44zM889.7536 652.2368h-175.7696a30.72 30.72 0 0 1 0-61.44h175.7696a30.72 30.72 0 0 1 0 61.44zM889.7536 773.6832h-175.7696a30.72 30.72 0 0 1 0-61.44h175.7696a30.72 30.72 0 0 1 0 61.44z" fill="#2E3138" p-id="1439"></path></svg>