<svg width="18" height="18" viewBox="0 0 18 18" fill="none" xmlns="http://www.w3.org/2000/svg">
<path d="M15.1562 4.161C13.6082 2.613 11.0994 2.613 9.5514 4.161L9.1586 4.5538L8.7658 4.161C7.2178 2.613 4.709 2.613 3.161 4.161C1.613 5.709 1.613 8.2178 3.161 9.7658L8.5138 15.1186C8.8698 15.4746 9.4474 15.4746 9.8042 15.1186L14.7642 10.1586L15.157 9.7658C16.7034 8.2186 16.7034 5.709 15.1562 4.161ZM14.057 8.2234C13.9786 8.3018 13.8762 8.3402 13.7738 8.3402C13.6714 8.3402 13.569 8.301 13.4906 8.2234C13.4157 8.14836 13.3736 8.04665 13.3736 7.9406C13.3736 7.83455 13.4157 7.73284 13.4906 7.6578C13.604 7.54503 13.694 7.41089 13.7552 7.26314C13.8165 7.11538 13.8478 6.95695 13.8474 6.797C13.8474 6.4722 13.721 6.1666 13.4906 5.9362C13.261 5.7058 12.9546 5.5794 12.6298 5.5794C12.305 5.5794 11.9986 5.7058 11.769 5.9362C11.694 6.01113 11.5922 6.05322 11.4862 6.05322C11.3802 6.05322 11.2784 6.01113 11.2034 5.9362C11.1285 5.86116 11.0864 5.75945 11.0864 5.6534C11.0864 5.54735 11.1285 5.44564 11.2034 5.3706C11.5842 4.9898 12.0906 4.7794 12.6298 4.7794C13.169 4.7794 13.6754 4.989 14.0562 5.3706C14.437 5.7514 14.6474 6.2578 14.6474 6.797C14.6482 7.3354 14.4378 7.8418 14.057 8.2234Z" fill="#FF5000"/>
</svg>
