<svg width="12" height="12" viewBox="0 0 12 12" fill="none" xmlns="http://www.w3.org/2000/svg">
<path id="Vector" d="M7.22473 0C7.34285 0 7.5506 0.0251248 7.7096 0.0764998C8.4926 0.330375 8.94335 1.16213 8.76073 1.99463L8.74197 2.07262L8.0441 4.69012H10.8086C11.1442 4.69012 11.4761 4.81462 11.7011 5.06362C11.9523 5.34188 12.0502 5.71013 11.9756 6.0675L11.9568 6.144L10.4992 11.334C10.4487 11.5144 10.3439 11.675 10.199 11.7937C10.0541 11.9125 9.87607 11.9837 9.68922 11.9978L9.62172 12H2.24999V4.95413C3.74324 4.63088 5.92723 0.6585 5.92723 0.6585C6.23773 0.237375 6.61423 0 7.22473 0ZM1.125 4.875V12H0V4.875H1.125ZM7.22473 1.125C7.05598 1.125 6.9866 1.1445 6.90035 1.24125L6.87035 1.2765L6.72861 1.524L6.57673 1.78088C6.23092 2.36152 5.86033 2.92704 5.46598 3.47588C5.03511 4.07213 4.61174 4.58588 4.19624 4.99575C3.91986 5.26837 3.64874 5.49563 3.37499 5.67188V10.875H9.45972L10.875 5.83275C10.875 5.82788 10.8727 5.82488 10.8663 5.81775C10.8716 5.82375 10.8513 5.81513 10.8086 5.81513H6.57973L7.65485 1.782C7.7321 1.49325 7.5911 1.22063 7.3631 1.14675C7.31757 1.13549 7.27115 1.12821 7.22435 1.125H7.22473Z" fill="#999999"/>
</svg>
