<?xml version="1.0" encoding="utf-8"?>
<svg version="1.1" xmlns:xlink="http://www.w3.org/1999/xlink" width="28px" height="35px" xmlns="http://www.w3.org/2000/svg">
  <g transform="matrix(1 0 0 1 -98 -1206 )">
    <path d="M 27.980565375976568 25.10600705566406  C 27.980565375976568 23.498233212890625  26.867491171875002 22.26148408203125  25.5070671484375 22.01413426269531  L 25.5070671484375 14.46996465332031  C 25.5070671484375 9.151943452148437  21.796819790039063 4.699646635742186  16.84982333496094 3.586572431640623  L 16.84982333496094 3.462897539062498  C 16.84982333496094 2.102473515624998  15.736749130859376 0.9893993115234354  14.376325073242192 0.989399277343748  C 13.015901015625005 0.9893992431640606  11.90282684570313 2.1024734814453105  11.90282684570313 3.462897539062498  L 11.90282684570313 3.7102473583984374  C 6.955830390625005 4.823321562499999  3.245583032226567 9.27561837890625  3.245583032226567 14.593639580078126  L 3.245583032226567 22.137809189453122  C 1.885159008789067 22.385159008789064  0.7720848046875046 23.621908139648436  0.7720848046875046 25.10600705566406  C 0.7720848046875046 26.837455825195313  2.1325088281250046 28.197879848632816  3.8639575976562544 28  L 24.888692583007817 28  C 26.62014135253907 28.197879848632816  27.980565375976568 26.837455825195313  27.980565375976568 25.10600705566406  Z M 18.086572431640626 30.05300354492187  C 18.086572431640626 29.681978798828123  17.715547685546873 29.434628979492185  17.46819786621094 29.434628979492185  L 10.04770318359375 29.434628979492185  C 9.6766784375 29.434628979492185  9.429328618164062 29.681978798828126  9.429328618164062 30.05300354492187  C 9.429328618164062 32.40282687988281  11.40812720703125 34.381625468749995  13.757950541992187 34.38162543457031  C 16.10777387695312 34.381625400390625  18.08657246582031 32.402826845703125  18.086572431640626 30.05300354492187  Z " fill-rule="nonzero" fill="#f26d6d" stroke="none" transform="matrix(1 0 0 1 98 1206 )" />
  </g>
</svg>