<?xml version="1.0" encoding="utf-8"?>
<svg version="1.1" xmlns:xlink="http://www.w3.org/1999/xlink" width="40px" height="32px" xmlns="http://www.w3.org/2000/svg">
  <g transform="matrix(1 0 0 1 -233 -800 )">
    <path d="M 38.35294117647059 32  L 1.588235294117647 32  C 0.7760518384841277 32  0.11764705882352941 31.351137318595352  0.11764705882352941 30.55072463768116  L 0.11764705882352941 1.565217391304348  C 0.11764705882352941 0.764804710390155  0.7760518384841277 0.11594202898550725  1.588235294117647 0.11594202898550725  C 2.400418749751166 0.11594202898550725  3.058823529411765 0.764804710390155  3.058823529411765 1.565217391304348  C 3.058823529411765 1.565217391304348  3.058823529411765 1.565217391304348  3 1.565217391304348  L 3 29  L 38.35294117647059 29  C 38.35294117647059 29.10144927536232  38.35294117647059 29.10144927536232  38.35294117647059 29.10144927536232  C 39.1651246321041 29.10144927536232  39.82352941176471 29.750311956766968  39.82352941176471 30.55072463768116  C 39.82352941176471 31.351137318595352  39.1651246321041 32  38.35294117647059 32  Z " fill-rule="nonzero" fill="#000000" stroke="none" transform="matrix(1 0 0 1 233 800 )" />
  </g>
</svg>