<?xml version="1.0" encoding="utf-8"?>
<svg version="1.1" xmlns:xlink="http://www.w3.org/1999/xlink" width="30px" height="30px" xmlns="http://www.w3.org/2000/svg">
  <g transform="matrix(1 0 0 1 -109 -1275 )">
    <path d="M 30 15  C 30 6.749999999999999  23.25 0  15 0  C 6.75 0  0 6.75  0 15  C 0 23.25  6.75 30  15 30  C 23.25 30  30 23.25  30 15  Z M 17.1426 23.5698  C 17.13996452419381 24.75232393545463  16.18252130537511 25.71057150309899  15 25.714199999999995  C 13.817576490201187 25.71057010079301  12.860305794871573 24.75222683325574  12.857999999999999 23.5698  C 12.8626126721905 22.3891113899659  13.819306960761887 21.433489027768264  15 21.4302  C 16.180655538556042 21.43381395030627  17.13733177979427 22.389150684065868  17.1426 23.5698  Z M 17.892000000000003 9.212399999999999  C 17.8926 9.212399999999999  17.7876 9.4302  17.7876 9.5376  C 17.7876 9.5376  17.7876 9.641999999999998  17.7876 9.5376  C 17.7876 9.641999999999998  15.9624 18.1074  15.9624 18.1074  C 15.9624 18.1074  16.0698 17.464199999999998  15.9624 18.1074  C 15.857400000000002 18.749399999999998  15.537600000000001 19.0698  15 19.0698  C 14.4624 19.0698  14.1426 18.6444  14.0376 18  C 13.8198 17.358  12.2124 9.749999999999998  12.2124 9.749999999999998  C 12.2124 9.5376  12.1074 9.319799999999997  12.1074 9.212399999999999  C 12.107386454765557 9.208793243273231  12.10737968213043 9.205186464291785  12.10737968213043 9.201579682130427  C 12.10737968213043 7.610336860917948  13.397336860917948 6.3203796821304286  14.98857968213043 6.3203796821304286  C 14.992186464291784 6.3203796821304286  14.995793243273228 6.3203864547655595  14.9994 6.320399999999999  C 15.003206756831984 6.32038491088862  15.007013539830846 6.320377366310704  15.0108203265676 6.320377366310704  C 16.602063147780083 6.320377366310704  17.8920203265676 7.610334545098222  17.8920203265676 9.201577366310703  C 17.8920203265676 9.205184920418063  17.892013551033116 9.208792471343559  17.892000000000003 9.212399999999999  Z " fill-rule="nonzero" fill="#f26d6d" stroke="none" transform="matrix(1 0 0 1 109 1275 )" />
  </g>
</svg>